<?xml version="1.0" encoding="UTF-8" standalone="no"?>
<svg
   version="1.1"
   id="L7"
   x="0px"
   y="0px"
   viewBox="0 0 100 100"
   enable-background="new 0 0 100 100"
   xml:space="preserve"
   sodipodi:docname="espiral.svg"
   inkscape:version="1.2.1 (9c6d41e410, 2022-07-14)"
   xmlns:inkscape="http://www.inkscape.org/namespaces/inkscape"
   xmlns:sodipodi="http://sodipodi.sourceforge.net/DTD/sodipodi-0.dtd"
   xmlns="http://www.w3.org/2000/svg"
   xmlns:svg="http://www.w3.org/2000/svg"><defs
   id="defs353" /><sodipodi:namedview
   id="namedview351"
   pagecolor="#ffffff"
   bordercolor="#000000"
   borderopacity="0.25"
   inkscape:showpageshadow="2"
   inkscape:pageopacity="0.0"
   inkscape:pagecheckerboard="0"
   inkscape:deskcolor="#d1d1d1"
   showgrid="false"
   inkscape:zoom="8.37"
   inkscape:cx="50"
   inkscape:cy="50.059737"
   inkscape:window-width="1920"
   inkscape:window-height="1017"
   inkscape:window-x="-8"
   inkscape:window-y="-8"
   inkscape:window-maximized="1"
   inkscape:current-layer="L7" />
 <path
   fill="#fff"
   d="M31.6,3.5C5.9,13.6-6.6,42.7,3.5,68.4c10.1,25.7,39.2,38.3,64.9,28.1l-3.1-7.9c-21.3,8.4-45.4-2-53.8-23.3   c-8.4-21.3,2-45.4,23.3-53.8L31.6,3.5z"
   id="path344">
      <animateTransform
   attributeName="transform"
   attributeType="XML"
   type="rotate"
   dur="2s"
   from="0 50 50"
   to="360 50 50"
   repeatCount="indefinite" />
  </path>
 <path
   fill="#fff"
   d="M42.3,39.6c5.7-4.3,13.9-3.1,18.1,2.7c4.3,5.7,3.1,13.9-2.7,18.1l4.1,5.5c8.8-6.5,10.6-19,4.1-27.7   c-6.5-8.8-19-10.6-27.7-4.1L42.3,39.6z"
   id="path346">
      <animateTransform
   attributeName="transform"
   attributeType="XML"
   type="rotate"
   dur="1s"
   from="0 50 50"
   to="-360 50 50"
   repeatCount="indefinite" />
  </path>
 <path
   fill="#fff"
   d="M82,35.7C74.1,18,53.4,10.1,35.7,18S10.1,46.6,18,64.3l7.6-3.4c-6-13.5,0-29.3,13.5-35.3s29.3,0,35.3,13.5   L82,35.7z"
   id="path348">
      <animateTransform
   attributeName="transform"
   attributeType="XML"
   type="rotate"
   dur="2s"
   from="0 50 50"
   to="360 50 50"
   repeatCount="indefinite" />
  </path>
</svg>
